<svg id="noun_chat_1079099" xmlns="http://www.w3.org/2000/svg" width="13.949" height="13.58" viewBox="0 0 13.949 13.58">
  <g id="Group_40" data-name="Group 40">
    <path id="Path_3" data-name="Path 3" d="M15.374,11A6.779,6.779,0,0,0,8.4,17.538a6.779,6.779,0,0,0,6.974,6.538,7.331,7.331,0,0,0,3.319-.788l2.23,1.207a.752.752,0,0,0,.319.084.723.723,0,0,0,.4-.134.682.682,0,0,0,.251-.671l-.6-2.783a6.246,6.246,0,0,0,1.056-3.454A6.779,6.779,0,0,0,15.374,11Zm4.661,9.456a.679.679,0,0,0-.117.536l.352,1.643L19,21.948a.652.652,0,0,0-.654.017,5.976,5.976,0,0,1-2.967.771,5.437,5.437,0,0,1-5.633-5.2,5.437,5.437,0,0,1,5.633-5.2,5.437,5.437,0,0,1,5.633,5.2A4.917,4.917,0,0,1,20.035,20.456Z" transform="translate(-8.4 -11)" fill="#181818"/>
  </g>
</svg>
