<svg xmlns="http://www.w3.org/2000/svg" width="20.091" height="21.281" viewBox="0 0 20.091 21.281">
  <g id="noun_Search_2475045" style="isolation: isolate">
    <g id="Group_43" data-name="Group 43" transform="translate(0 0)" opacity="0.46">
      <path id="Path_6" data-name="Path 6" d="M70.7,70.462a1.02,1.02,0,0,0-1.5,1.377L72.376,75.3a1.02,1.02,0,0,0,1.5-1.377Z" transform="translate(-54.057 -54.355)" fill="#31323b"/>
      <path id="Path_7" data-name="Path 7" d="M28.008,19.489a1.02,1.02,0,0,0-1.966-.543,6.817,6.817,0,1,1-.905-5.61,1.02,1.02,0,0,0,1.7-1.135,8.854,8.854,0,1,0,1.176,7.288Z" transform="translate(-10.599 -8.263)" fill="#31323b"/>
      <path id="Path_8" data-name="Path 8" d="M73.338,32.894a1.02,1.02,0,1,0-1.986.462,2.654,2.654,0,0,1,.069.423l.015.161a1.02,1.02,0,0,0,1.012.91c.036,0,.074,0,.11-.005a1.02,1.02,0,0,0,.905-1.125l-.015-.145A4.32,4.32,0,0,0,73.338,32.894Z" transform="translate(-55.841 -26.026)" fill="#31323b"/>
    </g>
  </g>
</svg>
